<svg width="114" height="26" viewBox="0 0 114 26" fill="none" xmlns="http://www.w3.org/2000/svg">
<g clip-path="url(#clip0_224_3126)">
<path fill-rule="evenodd" clip-rule="evenodd" d="M92.4033 0L91.3148 6.12444H98.1892L94.6947 26H102.428L105.98 6.18222H112.912L114 0H92.4033ZM49.6676 19.8178L50.4696 15.3111H55.5108H56.7138C61.1822 15.3111 59.9791 19.8178 55.9691 19.8178H49.6676ZM64.562 12.2489C66.1661 11.2089 67.0254 9.53333 67.3118 7.74222C68.1138 3.52444 65.3641 0 59.1198 0H45.6002L41.8193 20.7422L45.142 25.9422H54.7661C61.0676 25.9422 65.7651 22.9378 66.6817 17.7378C67.4264 13.52 64.6193 12.3067 64.562 12.2489ZM57.0575 10.2844H51.4435L52.1882 6.12444H56.5992H57.6877C61.8123 6.18222 60.6666 10.2844 57.0575 10.2844ZM75.9621 15.9467L75.2746 19.8756H87.8203L86.7319 26H66.4525L71.0927 0H90.6274L89.5389 6.12444H77.7379L77.1078 9.76444H87.3048L86.2163 15.8889L75.9621 15.9467Z" fill="#0BBBEF"/>
<path fill-rule="evenodd" clip-rule="evenodd" d="M28.8151 2.60063C27.2111 0.578411 24.5186 -0.057145 22.1126 0.000632775H15.2382L21.597 9.93841L28.8151 2.60063ZM10.3688 23.8629L33.7417 0.000632775H44.9126L33.8563 11.3251L43.194 25.9429H37.4653C31.9658 25.9429 30.8774 24.1517 29.9608 22.9962L26.9819 18.3162L19.4774 26.0006H2.17688C2.97889 21.4362 3.7809 16.814 4.6402 12.2495L5.38492 10.054L0 12.654L0.0572864 5.95174L8.99397 0.000632775H14.7226L10.3688 23.8629Z" fill="#FEFEFE"/>
</g>
<defs>
<clipPath id="clip0_224_3126">
<rect width="114" height="26" fill="white"/>
</clipPath>
</defs>
</svg>
