<?xml version="1.0" standalone="no"?>
<!DOCTYPE svg PUBLIC "-//W3C//DTD SVG 20010904//EN"
 "http://www.w3.org/TR/2001/REC-SVG-20010904/DTD/svg10.dtd">
<svg version="1.0" xmlns="http://www.w3.org/2000/svg"
 width="95.000000pt" height="95.000000pt" viewBox="0 0 95.000000 95.000000"
 preserveAspectRatio="xMidYMid meet">
<metadata>
Created by potrace 1.14, written by Peter Selinger 2001-2017
</metadata>
<g transform="translate(0.000000,95.000000) scale(0.100000,-0.100000)"
fill="#000000" stroke="none">
<path d="M0 475 l0 -475 470 0 470 0 0 475 0 475 -470 0 -470 0 0 -475z m280
50 l0 -255 65 0 65 0 0 255 0 255 108 0 c148 -1 200 -25 237 -113 23 -56 19
-134 -10 -193 l-25 -50 20 -39 c16 -31 20 -59 20 -132 l0 -93 -55 0 -55 0 0
84 c0 107 -18 136 -86 136 l-44 0 0 -49 c0 -26 -3 -76 -6 -110 l-7 -61 -168 0
-169 0 0 310 0 310 55 0 55 0 0 -255z"/>
<path d="M520 580 l0 -90 50 0 c37 0 55 5 70 20 15 15 20 33 20 70 0 68 -22
90 -90 90 l-50 0 0 -90z"/>
</g>
</svg>
